<?xml version="1.0" standalone="no"?>
<!DOCTYPE svg PUBLIC "-//W3C//DTD SVG 20010904//EN"
 "http://www.w3.org/TR/2001/REC-SVG-20010904/DTD/svg10.dtd">
<svg version="1.0" xmlns="http://www.w3.org/2000/svg"
 width="819.000000pt" height="819.000000pt" viewBox="0 0 819.000000 819.000000"
 preserveAspectRatio="xMidYMid meet">

<g transform="translate(0.000000,819.000000) scale(0.100000,-0.100000)"
fill="#000000" stroke="none">
<path d="M0 4095 l0 -4095 4095 0 4095 0 0 4095 0 4095 -4095 0 -4095 0 0
-4095z m6675 2229 c-26 -104 -77 -315 -115 -469 -37 -154 -74 -306 -81 -337
-7 -32 -16 -58 -21 -58 -9 0 -84 62 -229 189 l-46 40 -199 -202 c-110 -111
-458 -466 -774 -790 l-573 -587 -31 37 c-82 100 -464 513 -475 513 -4 0 -434
-432 -956 -960 -523 -528 -953 -959 -956 -958 -4 2 -55 61 -113 132 l-107 129
193 196 c106 108 419 423 694 701 276 278 666 672 868 875 l366 370 52 -55
c29 -30 145 -150 259 -266 l207 -212 219 222 c204 205 812 830 983 1009 l75
79 -33 26 c-17 15 -81 68 -141 117 -107 88 -123 105 -100 105 11 0 379 118
854 275 121 40 221 71 223 70 1 -1 -18 -87 -43 -191z m-5004 -449 c3 -225 7
-1181 8 -2122 l1 -1713 2515 0 2515 0 0 -130 0 -130 -2650 0 -2650 0 0 2255 0
2256 128 -3 127 -3 6 -410z m4666 -1568 c1 -314 4 -908 8 -1319 l7 -748 -295
0 -294 0 -7 928 c-3 510 -9 1101 -12 1314 l-7 387 34 4 c19 2 153 5 299 5
l265 2 2 -573z m-947 -1137 l0 -930 -295 0 -295 0 0 298 c0 164 -3 583 -7 930
l-6 632 301 0 302 0 0 -930z m-987 189 c4 -232 7 -579 7 -771 l0 -348 -295 0
-295 0 0 28 c0 15 -3 361 -7 769 l-6 742 295 1 295 1 6 -422z m-960 -169 c2
-3 8 -218 11 -477 l8 -473 -301 0 -301 0 0 478 0 477 289 0 c159 0 291 -2 294
-5z"/>
</g>
</svg>
