<?xml version="1.0" encoding="UTF-8"?>
<svg version="1.2" xmlns="http://www.w3.org/2000/svg" width="1092" height="1092">
<path d="M0 0 C360.36 0 720.72 0 1092 0 C1092 360.36 1092 720.72 1092 1092 C731.64 1092 371.28 1092 0 1092 C0 731.64 0 371.28 0 0 Z " fill="#000000" transform="translate(0,0)"/>
<path d="M0 0 C10.45818217 0 20.46088327 0.01533697 30.80419922 0.76757812 C31.85881348 0.84427734 32.91342773 0.92097656 34 1 C35.03827955 19.47615636 35.3160855 37.95092936 35.52658565 56.45071159 C35.55698261 59.1170883 35.58848991 61.78345047 35.62006271 64.44981349 C36.16352041 111.03526618 36.13135972 157.6217163 36.10339781 204.20965321 C36.09598216 216.85904847 36.09538478 229.50843904 36.09460449 242.15783691 C36.08941735 275.3343926 36.0754565 308.51094644 36.0625 341.6875 C36.041875 416.040625 36.02125 490.39375 36 567 C257.43 567 478.86 567 707 567 C707 578.55 707 590.1 707 602 C473.69 602 240.38 602 0 602 C0 403.34 0 204.68 0 0 Z " fill="#FCFCFC" transform="translate(188,253)"/>
<path d="M0 0 C-0.6665222 7.62436373 -2.16935778 14.91973991 -3.875 22.375 C-4.02217468 23.02418396 -4.16934937 23.67336792 -4.32098389 24.34222412 C-7.60045105 38.7766482 -11.28110349 53.10948538 -15.00341797 67.43505859 C-17.96063111 78.82781952 -20.76797109 90.24766243 -23.46051025 101.70587158 C-24.6698481 106.84846483 -25.89860061 111.98645508 -27.125 117.125 C-27.36347656 118.13046875 -27.60195313 119.1359375 -27.84765625 120.171875 C-29.43641649 126.81890434 -31.16244154 133.41743572 -33 140 C-36.22365895 138.82520418 -38.71599527 137.66787798 -41.27734375 135.3828125 C-41.86684814 134.86372314 -42.45635254 134.34463379 -43.0637207 133.80981445 C-43.68206787 133.25382568 -44.30041504 132.69783691 -44.9375 132.125 C-46.26259048 130.95393995 -47.58812259 129.78337944 -48.9140625 128.61328125 C-49.92388184 127.71730225 -49.92388184 127.71730225 -50.95410156 126.80322266 C-54.20802383 123.93526683 -57.51056684 121.1248885 -60.8125 118.3125 C-66.71895087 113.28104913 -66.71895087 113.28104913 -69 111 C-73.260664 111.13923739 -75.49707285 114.16742852 -78.3125 117.0625 C-79.21613281 117.98160156 -80.11976563 118.90070313 -81.05078125 119.84765625 C-83.11446607 122.01427791 -85.0737339 124.24623378 -87.0144043 126.52319336 C-91.21051144 131.3284598 -95.70145827 135.81558281 -100.23036194 140.30552673 C-101.75593977 141.81812332 -103.27818086 143.33401202 -104.79968262 144.85070801 C-108.57616982 148.61395801 -112.35813511 152.37168668 -116.13995361 156.12957764 C-119.34759868 159.31735668 -122.55309295 162.50727042 -125.75587463 165.69993591 C-127.24203689 167.17970556 -128.73121996 168.65638565 -130.22058105 170.13293457 C-134.75232489 174.6483693 -139.1272695 179.20979967 -143.29064941 184.0657959 C-146.53611422 187.73817967 -150.0479397 191.14891693 -153.53125 194.59375 C-154.32599731 195.38471069 -155.12074463 196.17567139 -155.9395752 196.99060059 C-159.30535548 200.34018573 -162.67711048 203.6837327 -166.04833984 207.02783203 C-168.52390227 209.48520939 -170.99638083 211.94566058 -173.46875 214.40625 C-174.21999146 215.14919312 -174.97123291 215.89213623 -175.74523926 216.65759277 C-179.7523621 220.64627138 -183.55080561 224.73337654 -187.24060059 229.01574707 C-190.37175142 232.54706302 -193.73810364 235.8399627 -197.09375 239.15625 C-197.84410522 239.9028186 -198.59446045 240.64938721 -199.36755371 241.4185791 C-202.54216504 244.57701112 -205.72275916 247.72939279 -208.90283203 250.88232422 C-211.23940361 253.20069745 -213.57287999 255.5221552 -215.90625 257.84375 C-216.6137439 258.54294556 -217.32123779 259.24214111 -218.0501709 259.96252441 C-221.95472963 263.84804897 -225.64183356 267.84326137 -229.23864746 272.01379395 C-232.30250625 275.46878364 -235.59107058 278.69331731 -238.875 281.9375 C-239.96723877 283.02405884 -239.96723877 283.02405884 -241.08154297 284.13256836 C-244.16056951 287.19542424 -247.24558323 290.25222311 -250.33007812 293.30957031 C-252.59715458 295.55844117 -254.86112966 297.81040238 -257.125 300.0625 C-257.81062012 300.73982178 -258.49624023 301.41714355 -259.20263672 302.11499023 C-263.13772747 306.03031392 -266.8670753 310.05132807 -270.45874023 314.28491211 C-272.43160844 316.4802866 -274.61672146 318.26670652 -277 320 C-285.49729802 310.59709426 -285.49729802 310.59709426 -289.375 306.125 C-292.78682513 302.20771929 -296.29719088 298.38327362 -299.81420898 294.56079102 C-302.70938703 291.41287108 -305.58353326 288.24796197 -308.4375 285.0625 C-313.31676282 279.63151842 -318.25654941 274.2584807 -323.22705078 268.91113281 C-324.49871129 267.54035914 -325.76759683 266.16700915 -327.03466797 264.79199219 C-329.18420796 262.46027123 -331.3414433 260.13587321 -333.5 257.8125 C-334.18263916 257.0692749 -334.86527832 256.3260498 -335.56860352 255.56030273 C-336.21627686 254.86622314 -336.8639502 254.17214355 -337.53125 253.45703125 C-338.39073242 252.5285437 -338.39073242 252.5285437 -339.26757812 251.58129883 C-341.07883841 249.92803884 -342.79890694 249.04854452 -345 248 C-361.3105214 264.28713594 -377.6181601 280.5771532 -393.92239475 296.87058258 C-401.49320754 304.4362444 -409.06495214 312.00096918 -416.63891602 319.56347656 C-423.24223701 326.15681404 -429.84378395 332.75192179 -436.44322819 339.34913969 C-439.93593246 342.84054309 -443.42950407 346.33106832 -446.92520332 349.81947327 C-450.21953845 353.10699029 -453.51148545 356.39688023 -456.80166435 359.68855667 C-458.00565048 360.89226906 -459.21048532 362.09513329 -460.41625977 363.29705429 C-465.83552291 368.6998555 -471.17421347 374.10515072 -476.15077305 379.92450714 C-480.48687481 384.79116141 -485.19487925 389.32390958 -489.81030273 393.92382812 C-490.99380124 395.10704408 -492.17707865 396.29048123 -493.3601532 397.47412109 C-496.55161727 400.66587049 -499.74614135 403.85454084 -502.94124866 407.04264259 C-506.28758954 410.38270566 -509.63107327 413.72562638 -512.97486877 417.0682373 C-519.29792141 423.38818963 -525.62351742 429.70558987 -531.95004469 436.02206373 C-539.15640737 443.21722478 -546.35990952 450.41524679 -553.56317985 457.61350346 C-568.37228585 472.41217454 -583.18495755 487.2072721 -598 502 C-602.27601949 500.08402859 -604.74736886 497.11192379 -607.6875 493.5625 C-608.21351807 492.93794922 -608.73953613 492.31339844 -609.28149414 491.66992188 C-610.8629135 489.78690273 -612.43359092 487.89551627 -614 486 C-614.66999023 485.18958252 -614.66999023 485.18958252 -615.35351562 484.36279297 C-617.27353355 482.03443531 -619.18300371 479.69780725 -621.0859375 477.35546875 C-623.36619504 474.5493559 -625.67791413 471.77152185 -628 469 C-626.70355529 466.17041213 -625.31219086 464.03284267 -623.18151855 461.76965332 C-622.60827095 461.1579705 -622.03502335 460.54628769 -621.4444046 459.91606903 C-620.8175753 459.25862953 -620.190746 458.60119003 -619.54492188 457.92382812 C-618.55032581 456.87262157 -618.55032581 456.87262157 -617.5356369 455.80017853 C-610.09546145 447.97953818 -602.46393738 440.35011451 -594.81233215 432.73716736 C-592.21073868 430.14859149 -589.61250528 427.55668173 -587.01501465 424.96398926 C-581.51286247 419.47312814 -576.00672818 413.98627138 -570.5 408.5 C-564.0823443 402.10605245 -557.66638943 395.71041621 -551.25462341 389.31056213 C-548.70700539 386.76937723 -546.15637479 384.23124369 -543.60559082 381.6932373 C-542.03704227 380.12832264 -540.46863471 378.56326665 -538.90039062 376.99804688 C-538.20106415 376.30388672 -537.50173767 375.60972656 -536.78121948 374.89453125 C-533.6174925 371.73114164 -530.5557387 368.53400897 -527.63989258 365.13989258 C-523.29149692 360.10474216 -518.57666199 355.45272534 -513.86132812 350.76367188 C-512.85666376 349.76093102 -511.85223003 348.75795904 -510.8480072 347.754776 C-508.69966324 345.60957229 -506.549781 343.46592696 -504.39866638 341.32350159 C-500.99089539 337.9293536 -497.58703182 334.53130463 -494.18371582 331.13269043 C-486.34553859 323.30651066 -478.5023374 315.48537216 -470.65908051 307.66428375 C-463.46541684 300.49084821 -456.27284235 293.31632931 -449.0843215 286.13773966 C-445.70740172 282.76577431 -442.32806584 279.39625564 -438.94680023 276.02864838 C-436.83729073 273.9266462 -434.72989826 271.82253108 -432.62304878 269.71786308 C-431.19364329 268.2911943 -429.76171948 266.86705003 -428.32969666 265.44300842 C-423.92930406 261.04297397 -419.69056731 256.58302226 -415.6361599 251.8629837 C-412.87995327 248.72467917 -409.9242043 245.7932462 -406.96313477 242.84960938 C-406.29886978 242.18519836 -405.6346048 241.52078735 -404.95021057 240.83624268 C-402.7829744 238.66969579 -400.61223229 236.50669938 -398.44140625 234.34375 C-396.926615 232.83082644 -395.41204632 231.31768 -393.89768982 229.80432129 C-389.9330512 225.84348026 -385.96541749 221.88565298 -381.99713135 217.9284668 C-377.93961743 213.88122661 -373.88497254 209.83111435 -369.83007812 205.78125 C-361.88950839 197.85136888 -353.9457684 189.92467179 -346 182 C-339.50377151 187.35905348 -339.50377151 187.35905348 -337.03125 190.40625 C-333.61040771 194.4135224 -329.95153147 198.13066659 -326.21875 201.84375 C-325.59774414 202.4615332 -324.97673828 203.07931641 -324.33691406 203.71582031 C-322.39312725 205.64575827 -320.44700124 207.5733052 -318.5 209.5 C-303.85853881 223.9887566 -303.85853881 223.9887566 -298.70458984 230.06835938 C-294.87146597 234.41205403 -290.67630844 238.42469373 -286.5625 242.5 C-285.64017578 243.4178125 -284.71785156 244.335625 -283.76757812 245.28125 C-281.51400101 247.52315055 -279.25810925 249.762666 -277 252 C-270.51108233 246.6994597 -264.65519881 240.80716523 -258.74804688 234.87841797 C-257.00761581 233.13263921 -255.26191997 231.39225463 -253.515625 229.65234375 C-252.38509604 228.52115368 -251.25487748 227.38965329 -250.125 226.2578125 C-249.35905518 225.49490402 -249.35905518 225.49490402 -248.57763672 224.71658325 C-245.84625964 221.96789727 -243.24463133 219.1535445 -240.71875 216.21435547 C-236.50012251 211.34846015 -231.94881119 206.84220872 -227.375 202.3125 C-226.46927246 201.41055908 -225.56354492 200.50861816 -224.63037109 199.5793457 C-221.27078694 196.23394556 -217.90668738 192.89311608 -214.54223633 189.5526123 C-211.23365649 186.267082 -207.92897519 182.97766209 -204.625 179.6875 C-203.76438965 178.83518799 -202.9037793 177.98287598 -202.01708984 177.10473633 C-197.72126705 172.82626612 -193.60509714 168.47626447 -189.65380859 163.87866211 C-186.90775872 160.75925647 -183.95793798 157.85439978 -181 154.9375 C-180.360625 154.30191162 -179.72125 153.66632324 -179.0625 153.01147461 C-176.36581517 150.33091985 -173.6631227 147.65645336 -170.9609375 144.98144531 C-161.57520966 135.74042062 -161.57520966 135.74042062 -152.75 125.97265625 C-148.09996028 120.73098201 -142.95683257 115.91049137 -137.97021484 110.99072266 C-132.65851409 105.74381953 -127.43932234 100.48771644 -122.58691406 94.80517578 C-119.38872754 91.1671156 -115.85362948 87.85274639 -112.3671875 84.49414062 C-108.99095116 81.21004938 -108.99095116 81.21004938 -107 77 C-107.53496094 76.77441406 -108.06992187 76.54882812 -108.62109375 76.31640625 C-111.77067233 74.573536 -114.36001752 72.2879549 -117.0625 69.9375 C-118.22457376 68.93930423 -119.38734537 67.94192034 -120.55078125 66.9453125 C-121.13037598 66.44805664 -121.7099707 65.95080078 -122.30712891 65.43847656 C-124.75644386 63.35722999 -127.25198692 61.33486884 -129.75 59.3125 C-133.26858027 56.4397678 -136.75600607 53.53895963 -140.1875 50.5625 C-140.92355469 49.92441406 -141.65960937 49.28632813 -142.41796875 48.62890625 C-144 47 -144 47 -144 45 C-143.07300293 44.73695068 -142.14600586 44.47390137 -141.19091797 44.20288086 C-128.91728679 40.67730155 -116.79319681 36.72410508 -104.66564941 32.72888184 C-101.05229332 31.53854853 -97.43791705 30.35136126 -93.82324219 29.16503906 C-90.12657153 27.95178266 -86.4299537 26.73836871 -82.73364258 25.52401733 C-72.14035894 22.04381917 -61.54213684 18.57895157 -50.93988037 15.12619019 C-48.34913807 14.28229281 -45.75878539 13.43720793 -43.16845703 12.59204102 C-34.22760386 9.67835796 -25.27474461 6.80662726 -16.30255127 3.99078369 C-15.19517609 3.6429483 -15.19517609 3.6429483 -14.06542969 3.28808594 C-13.36752319 3.06987183 -12.6696167 2.85165771 -11.95056152 2.62683105 C-10.19174216 2.06161812 -8.44859264 1.44819418 -6.70800781 0.82910156 C-4 0 -4 0 0 0 Z " fill="#FDFDFD" transform="translate(895,224)"/>
<path d="M0 0 C1.82067611 0.00109982 3.64135228 0.00209746 5.4620285 0.00299072 C9.8751593 0.00537474 14.28828692 0.00913584 18.70141602 0.01367188 C18.70564795 1.10634778 18.70987989 2.19902369 18.71424007 3.32481098 C18.8187699 30.26995096 18.92765105 57.2150709 19.04075527 84.16017628 C19.0953635 97.19214502 19.14868326 110.22411639 19.19873047 123.25610352 C19.25678797 138.32765452 19.31835706 153.39918756 19.38500977 168.47070312 C19.39314292 170.3122568 19.39314292 170.3122568 19.40144038 172.19101357 C19.55374944 206.2491524 19.85006639 240.2989928 20.43214417 274.35240173 C20.452603 275.54942215 20.47306183 276.74644257 20.49414062 277.97973633 C20.51381393 279.1263826 20.53348724 280.27302887 20.55375671 281.454422 C20.79900284 296.20387673 20.81607607 310.95003179 20.76391602 325.70117188 C20.74329102 334.38429688 20.72266602 343.06742188 20.70141602 352.01367188 C-5.36858398 352.01367188 -31.43858398 352.01367188 -58.29858398 352.01367188 C-58.68302997 313.79708234 -59.06582994 275.58047787 -59.4451308 237.36383699 C-59.49017766 232.8253215 -59.53524395 228.2868062 -59.58032227 223.74829102 C-59.58929411 222.84496686 -59.59826595 221.94164271 -59.60750967 221.0109451 C-59.75176184 206.4916484 -59.89757851 191.97236782 -60.04400021 177.45309285 C-60.19483501 162.49265783 -60.34392635 147.53220612 -60.49148512 132.57173842 C-60.57415496 124.19497237 -60.65757207 115.81821528 -60.74299622 107.44147682 C-61.10438768 71.96498559 -61.42179063 36.49261565 -61.29858398 1.01367188 C-59.43690755 0.96228436 -59.43690755 0.96228436 -57.5376215 0.9098587 C-55.89357561 0.86442792 -54.24952978 0.81899475 -52.60548401 0.77355957 C-51.38123899 0.73977644 -51.38123899 0.73977644 -50.13226175 0.70531082 C-46.83549763 0.61416328 -43.53876802 0.52253364 -40.24215603 0.42601776 C-26.82732484 0.03437122 -13.41931512 -0.01421499 0 0 Z " fill="#FDFDFD" transform="translate(826.298583984375,440.986328125)"/>
<path d="M0 0 C26.73 0 53.46 0 81 0 C81 81.84 81 163.68 81 248 C54.93 248 28.86 248 2 248 C1.93941406 238.71359375 1.87882813 229.4271875 1.81640625 219.859375 C1.77574616 213.85286187 1.73491684 207.84635062 1.69335938 201.83984375 C1.62792803 192.37842942 1.56306317 182.91701451 1.50268555 173.45556641 C1.44422465 164.31930966 1.38246332 155.1830801 1.31640625 146.046875 C1.31098415 145.29501388 1.30556204 144.54315275 1.29997563 143.76850796 C1.14346596 122.29090471 0.85600154 100.82056865 0.40054703 79.34687805 C0.02525074 61.64335554 -0.12434148 43.95746052 -0.0625 26.25 C-0.041875 17.5875 -0.02125 8.925 0 0 Z " fill="#FDFDFD" transform="translate(638,545)"/>
<path d="M0 0 C25.74 0 51.48 0 78 0 C79.26486763 40.47576429 79.26486763 40.47576429 79.5625 57.5 C79.58367889 58.68387299 79.60485779 59.86774597 79.62667847 61.0874939 C80.4443427 109.04874449 80.07543087 157.03435093 80 205 C53.93 205 27.86 205 1 205 C0.30939886 154.32714104 -0.09550517 103.67531322 -0.0625 53 C-0.06207577 52.33840771 -0.06165154 51.67681542 -0.06121445 50.99517488 C-0.05012972 33.99676121 -0.02656 16.99840285 0 0 Z " fill="#FEFEFE" transform="translate(508,588)"/>
<path d="M0 0 C25.74 0 51.48 0 78 0 C79.15491035 19.63347588 79.15491035 19.63347588 79.31640625 27.99609375 C79.34764587 29.45696159 79.34764587 29.45696159 79.3795166 30.94734192 C79.44494293 34.11065809 79.50432058 37.27404275 79.5625 40.4375 C79.58367889 41.53276001 79.60485779 42.62802002 79.62667847 43.75646973 C80.15347307 71.50680277 80.06736839 99.24422459 80 127 C53.6 127 27.2 127 0 127 C0 85.09 0 43.18 0 0 Z " fill="#FDFDFD" transform="translate(381,666)"/>
</svg>
